<svg id="Layer_1" data-name="Layer 1" xmlns="http://www.w3.org/2000/svg" viewBox="0 0 178.08 263.12"><defs><style>.cls-1,.cls-3{fill:none;}.cls-1,.cls-2{stroke:#fff;}.cls-1,.cls-2,.cls-3{stroke-miterlimit:10;}.cls-1{stroke-width:8px;}.cls-2{font-size:56.17px;font-family:SegoeUI, Segoe UI;}.cls-2,.cls-4{fill:#fff;}.cls-3{stroke:#231f20;stroke-width:0.75px;}</style></defs><rect class="cls-1" x="4" y="4" width="170.08" height="255.12" rx="20.77"/><text class="cls-2" transform="translate(18.4 72.2)">A</text><text class="cls-2" transform="translate(160.07 191.12) rotate(180)">A</text><path class="cls-3" d="M286.83,291.24l-.27-.26-.18-.19.21.19A2,2,0,0,1,286.83,291.24Z" transform="translate(-194.43 -151.91)"/><path class="cls-3" d="M286.83,291.24l-.27-.26-.18-.19.21.19A2,2,0,0,1,286.83,291.24Z" transform="translate(-194.43 -151.91)"/><path class="cls-3" d="M286.83,291.24l-.27-.26-.18-.19.21.19A2,2,0,0,1,286.83,291.24Z" transform="translate(-194.43 -151.91)"/><path class="cls-4" d="M317.74,291.73A17.15,17.15,0,0,1,289,304.38l-.12-.12a3.7,3.7,0,0,0-.38-.42l-.34-.3c.1.11.19.21.29.3-3.82.05-5,6.07-2.84,11.82a15.88,15.88,0,0,0,6.45,8,15.7,15.7,0,0,0,8.51,2.3H266.32a15.6,15.6,0,0,0,8.48-2.33,16.19,16.19,0,0,0,6.34-8c2.14-5.76,1-11.76-2.69-11.76a17.06,17.06,0,0,1-12.11,5h0a17.13,17.13,0,0,1-17.14-17.14,9.54,9.54,0,0,1,0-1.08c0-.08,0-.16,0-.24a10.37,10.37,0,0,1,.15-1.1c.08-.4.16-.82.27-1.23s.18-.66.28-1a13.79,13.79,0,0,1,.58-1.54c.09-.26.21-.52.32-.78s.13-.27.21-.42.27-.58.43-.87c.41-.77.87-1.57,1.36-2.33h0c3.61-5.61,9.4-11.2,15-16.74,8-8,15.67-16,15.67-24.09,0,8.06,7.59,16.1,15.64,24.15,5.39,5.42,11,10.82,14.61,16.26.31.45.6.91.87,1.37s.55.93.79,1.38a12.83,12.83,0,0,1,.69,1.39c.21.45.41.9.59,1.37a19.6,19.6,0,0,1,.66,2.06c0,.23.09.44.13.65a5.7,5.7,0,0,1,.14.74,8.39,8.39,0,0,1,.13,1.11.47.47,0,0,1,0,.16C317.74,291.2,317.74,291.48,317.74,291.73Z" transform="translate(-194.43 -151.91)"/></svg>