<svg id="Layer_2" data-name="Layer 2" xmlns="http://www.w3.org/2000/svg" viewBox="0 0 41.47 56.15"><defs><style>.cls-1{fill:none;stroke:#f5f5f5;stroke-miterlimit:10;}</style></defs><rect class="cls-1" x="6.6" y="13.91" width="7.06" height="28.38" rx="0.99"/><rect class="cls-1" x="27.82" y="14.01" width="7.06" height="28.38" rx="0.99"/><path class="cls-1" d="M88.5,113.34h8.64a1,1,0,0,1,.79,1.58l-4.12,5.45-4.52,6a1,1,0,0,1-1.57,0l-4.53-6-4.11-5.45a1,1,0,0,1,.78-1.58Z" transform="translate(-78.38 -71.11)"/><path class="cls-1" d="M109.73,85h-8.62a1,1,0,0,1-.8-1.6L104.42,78l4.51-6a1,1,0,0,1,1.59,0L115,78l4.1,5.44a1,1,0,0,1-.79,1.6Z" transform="translate(-78.38 -71.11)"/></svg>