<svg id="Layer_2" data-name="Layer 2" xmlns="http://www.w3.org/2000/svg" viewBox="0 0 122.2 118.97"><defs><style>.cls-1{fill:none;stroke:#f5f5f5;stroke-miterlimit:10;stroke-width:2px;}.cls-2{fill:#f5f5f5;}</style></defs><path class="cls-1" d="M155.91,70.87a28.35,28.35,0,0,1-56.7,0h28.35l-20-20.05a28.35,28.35,0,0,1,48.4,20.05Z" transform="translate(-34.71 -41.52)"/><circle class="cls-2" cx="102.85" cy="19.35" r="4.17"/><rect class="cls-2" x="141.77" y="53.79" width="2.64" height="14.4" rx="1.32" transform="translate(-20.21 -68.05) rotate(11.15)"/><path class="cls-1" d="M36.09,84.75a28.35,28.35,0,0,0,56,9.19l-28-4.6,23-16.53a28.36,28.36,0,0,0-51,11.94Z" transform="translate(-34.71 -41.52)"/><circle class="cls-2" cx="19.89" cy="35.11" r="5.39"/><rect class="cls-2" x="49.02" y="69.88" width="2.64" height="14.4" rx="1.32" transform="translate(68.39 110.99) rotate(178.18)"/><path class="cls-1" d="M90.5,151.6a28.35,28.35,0,0,0,39.27-40.9l-19.64,20.45-.57-28.35A28.35,28.35,0,0,0,90.5,151.6Z" transform="translate(-34.71 -41.52)"/><circle class="cls-2" cx="61.28" cy="89.91" r="4.17"/><rect class="cls-2" x="90.93" y="128.31" width="2.64" height="14.4" rx="1.32" transform="translate(221.41 89.53) rotate(122.68)"/></svg>