<svg id="Layer_1" data-name="Layer 1" xmlns="http://www.w3.org/2000/svg" viewBox="0 0 211.47 163.29"><defs><style>.cls-1{fill:#fff;}.cls-2{fill:none;stroke:#fff;stroke-miterlimit:10;stroke-width:5px;}</style></defs><path class="cls-1" d="M368.62,283.46H283.47C300.16,266.76,338.35,276,368.62,283.46Z" transform="translate(-199.58 -192.03)"/><path class="cls-1" d="M368.62,283.46H411C412,294.16,392.86,289.4,368.62,283.46Z" transform="translate(-199.58 -192.03)"/><path class="cls-1" d="M368.5,283.46l-.1.06-73.63,42.53C317.57,332.16,346,305,368.5,283.46Z" transform="translate(-199.58 -192.03)"/><path class="cls-1" d="M368.5,283.46l36.72-21.2C400.75,252.49,386.53,266.2,368.5,283.46Z" transform="translate(-199.58 -192.03)"/><rect class="cls-2" x="209.87" y="254.28" width="62.13" height="95.55" rx="15.05" transform="translate(-268.38 -120.96) rotate(-14.71)"/><path class="cls-1" d="M324,231.1a10.05,10.05,0,0,1-20.1,0,10.05,10.05,0,0,1-20,1.38A10,10,0,1,1,274,221.05h.24a9.69,9.69,0,0,1-.24-2.17,10,10,0,0,1,4.54-8.4,10,10,0,1,1,15.05-11.57,10,10,0,0,1,5.75,3.05,10.06,10.06,0,0,1,12.62,15.17,10.16,10.16,0,0,1-.14,4.15A10.06,10.06,0,0,1,324,231.1Z" transform="translate(-199.58 -192.03)"/></svg>